<?xml version="1.0" encoding="UTF-8"?>
<svg version="1.1" xmlns="http://www.w3.org/2000/svg" width="250" height="217">
<path d="M0 0 C5.93983016 4.23003046 11.25089322 8.88439812 16.5 13.9375 C21.28721389 18.51979672 26.1113805 23.01876299 31.12011719 27.35864258 C33.92479724 29.80745609 36.65022071 32.3380482 39.375 34.875 C44.03833223 39.1986416 48.73696176 43.47818453 53.47265625 47.72265625 C56.33082203 50.29809775 59.16710261 52.89685764 62 55.5 C65.64927171 58.85293117 69.31169598 62.18998357 73 65.5 C76.68830461 68.81001696 80.35068121 72.1471196 84 75.5 C87.67113936 78.87254947 91.35443368 82.23052915 95.0625 85.5625 C95.85398437 86.28050781 96.64546875 86.99851562 97.4609375 87.73828125 C99.32025959 89.39450816 101.19317807 91.00809336 103.1015625 92.60546875 C103.61581787 93.04624756 104.13007324 93.48702637 104.65991211 93.94116211 C106.11175745 95.18510375 107.577028 96.41332577 109.04296875 97.640625 C111 100 111 100 111.04296875 102.51171875 C109.80545024 105.46415054 108.33204267 107.24157078 106.125 109.5625 C104.90683594 110.86380859 104.90683594 110.86380859 103.6640625 112.19140625 C102.78492188 113.11824219 101.90578125 114.04507813 101 115 C99.15887777 116.99289221 97.33005751 118.99695038 95.5 121 C94.56258436 122.0209108 93.62508502 123.04174475 92.6875 124.0625 C90.27782859 126.69632689 87.88429419 129.34321505 85.5 132 C81.72462783 136.20684327 77.91019552 140.37674853 74.0859375 144.5390625 C71.20577393 147.67667086 68.34468386 150.83020941 65.5 154 C61.72462783 158.20684327 57.91019552 162.37674853 54.0859375 166.5390625 C50.46868117 170.479649 46.88870641 174.45230037 43.31640625 178.43359375 C40.2440331 181.83755523 37.14761036 185.21931519 34.02880859 188.58081055 C31.85014392 190.93738029 29.73844499 193.31795142 27.69921875 195.796875 C27.01472656 196.62703125 26.33023438 197.4571875 25.625 198.3125 C25.03976563 199.05113281 24.45453125 199.78976563 23.8515625 200.55078125 C22 202 22 202 19.66015625 202.07421875 C16.02326109 200.60557533 13.56797402 198.20279282 10.8125 195.5 C9.6541688 194.39658616 8.49531002 193.29372591 7.3359375 192.19140625 C6.76842773 191.64629395 6.20091797 191.10118164 5.61621094 190.53955078 C3.43142269 188.45839146 1.18957894 186.44542151 -1.0625 184.4375 C-4.73106948 181.14946285 -8.37254936 177.83327078 -12 174.5 C-17.30051952 169.62971468 -22.63890833 164.80363302 -28 160 C-24.19735816 154.52717821 -19.97414667 149.85556187 -15.2109375 145.203125 C-12.67835454 142.6794911 -10.35574063 140.03013941 -8.03125 137.31640625 C-4.7980919 133.62936249 -1.43994826 130.05727704 1.91333008 126.47949219 C4.16043309 124.06662225 6.16658062 121.75012906 8 119 C7.65485017 114.84056984 5.93808624 111.54143975 4.05859375 107.859375 C3.18364258 106.13074219 3.18364258 106.13074219 2.29101562 104.3671875 C1.67349533 103.16129531 1.0556529 101.95556803 0.4375 100.75 C-0.77493238 98.37119695 -1.98346912 95.99046924 -3.19140625 93.609375 C-3.99880249 92.0310791 -3.99880249 92.0310791 -4.82250977 90.42089844 C-6 88 -6 88 -6 87 C-2.7 87 0.6 87 4 87 C6.71970716 92.25184831 9.01095551 97.43067543 11 103 C13.0894988 99.8657518 14.56445886 96.73890554 16.125 93.3125 C16.66382813 92.13300781 17.20265625 90.95351562 17.7578125 89.73828125 C18.37269531 88.38283203 18.37269531 88.38283203 19 87 C22.3 87 25.6 87 29 87 C26.36 92.94 23.72 98.88 21 105 C22.5675 103.288125 24.135 101.57625 25.75 99.8125 C26.63171875 98.84957031 27.5134375 97.88664062 28.421875 96.89453125 C30.71018762 94.32538026 32.86009882 91.69213374 35 89 C37.18154732 86.75949194 39.40305391 84.57032174 41.6640625 82.41015625 C45.94105653 78.25563121 49.55211611 73.86240036 53 69 C48.24475703 64.14568947 43.44507127 59.43067872 38.2890625 55.00390625 C35.35037429 52.43130036 32.48863478 49.78057349 29.625 47.125 C24.96078625 42.80229839 20.2630561 38.52183148 15.52734375 34.27734375 C12.15931552 31.24247442 8.81819603 28.17853792 5.48706055 25.10327148 C3.02451526 22.83436908 0.54354232 20.60328809 -1.984375 18.40625 C-2.89703125 17.6121875 -3.8096875 16.818125 -4.75 16 C-5.56984375 15.29875 -6.3896875 14.5975 -7.234375 13.875 C-9 12 -9 12 -9 9 C-7.03125 6.73828125 -7.03125 6.73828125 -4.5 4.3125 C-3.24703125 3.10013672 -3.24703125 3.10013672 -1.96875 1.86328125 C-1.3190625 1.24839844 -0.669375 0.63351563 0 0 Z " fill="#3EA8F5" transform="translate(131,7)"/>
<path d="M0 0 C3.86776315 1.60393022 6.6265358 4.22632381 9.625 7.0625 C10.7001376 8.06421357 11.77566385 9.06551015 12.8515625 10.06640625 C13.38426758 10.56414551 13.91697266 11.06188477 14.46582031 11.57470703 C16.62032022 13.57629367 18.80853681 15.53903051 21 17.5 C25.19796844 21.26740757 29.35923782 25.07361861 33.51269531 28.88989258 C38.31089906 33.2944815 43.14908868 37.6534976 48 42 C47.42557555 45.82949634 45.73810785 47.71020515 43.125 50.5 C41.90683594 51.81484375 41.90683594 51.81484375 40.6640625 53.15625 C39.78492188 54.0946875 38.90578125 55.033125 38 56 C36.62757522 57.49000473 35.25953706 58.9839427 33.89208984 60.47851562 C32.4924489 62.00825297 31.08998012 63.53536585 29.6875 65.0625 C27.27782859 67.69632689 24.88429419 70.34321505 22.5 73 C19.18998148 76.68830635 15.85272786 80.35053979 12.5 84 C9.00957728 87.80236135 5.52573492 91.61031264 2.0625 95.4375 C1.37285156 96.19933594 0.68320313 96.96117188 -0.02734375 97.74609375 C-0.67832031 98.48988281 -1.32929687 99.23367187 -2 100 C-2.75539063 100.85851562 -3.51078125 101.71703125 -4.2890625 102.6015625 C-4.85367188 103.39304687 -5.41828125 104.18453125 -6 105 C-5.33642709 108.46532521 -3.95056379 111.09887242 -2.375 114.25 C-1 117 -1 117 -1 119 C-4.3 119 -7.6 119 -11 119 C-11.66 117.02 -12.32 115.04 -13 113 C-13.66 113 -14.32 113 -15 113 C-15.26425781 113.59296875 -15.52851562 114.1859375 -15.80078125 114.796875 C-17.04370425 117.08029054 -18.30401646 118.47426723 -20.1875 120.25 C-22.83800889 122.83925763 -25.43395734 125.45497478 -27.9375 128.1875 C-28.81728516 129.13689453 -28.81728516 129.13689453 -29.71484375 130.10546875 C-31.37425082 132.17015784 -31.37425082 132.17015784 -31 136 C-29.1435445 138.15958113 -29.1435445 138.15958113 -26.625 140.1875 C-25.24828125 141.37279297 -25.24828125 141.37279297 -23.84375 142.58203125 C-22.9053125 143.37996094 -21.966875 144.17789063 -21 145 C-19.36965155 146.45235155 -17.74452647 147.91059052 -16.125 149.375 C-15.30257812 150.11492187 -14.48015625 150.85484375 -13.6328125 151.6171875 C-10.22714247 154.69947047 -6.84389875 157.80590705 -3.46142578 160.91357422 C0.47657217 164.52855792 4.44639522 168.10650908 8.42578125 171.67578125 C11.36339034 174.32809901 14.27572282 177.0069096 17.1875 179.6875 C21.38489211 183.5493409 25.63439218 187.3289207 30 191 C29.41463247 194.66060821 27.916761 196.54535164 25.4375 199.25 C24.79683594 199.95640625 24.15617187 200.6628125 23.49609375 201.390625 C22.75552734 202.18726563 22.75552734 202.18726563 22 203 C18.59986814 202.4234559 17.07329515 201.39002339 14.75 198.875 C12.37550282 196.39530358 9.97993256 194.04922479 7.375 191.8125 C3.71856103 188.65917569 0.16515799 185.40727248 -3.375 182.125 C-8.03926296 177.80235068 -12.73694285 173.52183243 -17.47265625 169.27734375 C-20.33082203 166.70190225 -23.16710261 164.10314236 -26 161.5 C-29.64927171 158.14706883 -33.31169598 154.81001643 -37 151.5 C-41.20684327 147.72462783 -45.37674853 143.91019552 -49.5390625 140.0859375 C-52.67667086 137.20577393 -55.83020941 134.34468386 -59 131.5 C-62.68830635 128.18998148 -66.35053979 124.85272786 -70 121.5 C-73.80236135 118.00957728 -77.61031264 114.52573492 -81.4375 111.0625 C-82.19933594 110.37285156 -82.96117188 109.68320313 -83.74609375 108.97265625 C-86.10797225 106.90550089 -88.53539641 104.94299437 -91 103 C-90.4129951 99.69798475 -89.40207313 98.0110359 -87.0859375 95.609375 C-86.49345215 94.98659668 -85.9009668 94.36381836 -85.29052734 93.72216797 C-84.34234131 92.74594482 -84.34234131 92.74594482 -83.375 91.75 C-82.08246742 90.39405406 -80.79078954 89.03729284 -79.5 87.6796875 C-78.88511719 87.03612305 -78.27023438 86.39255859 -77.63671875 85.72949219 C-75.83040763 83.82079469 -74.08657808 81.86898847 -72.375 79.875 C-68.86451482 75.79716368 -65.20150074 71.86574736 -61.54467773 67.91967773 C-57.75070287 63.82251649 -54.00430511 59.68563517 -50.27734375 55.52734375 C-47.70190225 52.66917797 -45.10314236 49.83289739 -42.5 47 C-39.14706883 43.35072829 -35.81001643 39.68830402 -32.5 36 C-29.18998252 32.31169481 -25.85282959 28.64936591 -22.5 25 C-14.91546847 16.74187261 -7.43780407 8.39032939 0 0 Z " fill="#EF5924" transform="translate(98,7)"/>
<path d="M0 0 C4.00211119 2.58259807 7.25659071 5.85706246 9.125 10.3125 C9.66551262 16.25813885 9.56180609 20.22092827 6.3125 25.375 C2.43571995 29.98522492 -0.84186556 31.98766991 -6.859375 32.59375 C-11.87858258 32.79586574 -15.47012751 32.34633062 -19.6875 29.375 C-24.40205966 23.97050478 -26.05775975 19.65677511 -25.6875 12.375 C-24.59402325 7.81884689 -23.05861787 4.65740424 -19.6875 1.375 C-13.51782307 -2.0525983 -6.47593674 -3.3501058 0 0 Z " fill="#02070B" transform="translate(185.6875,94.625)"/>
<path d="M0 0 C4.021875 -0.0928125 4.021875 -0.0928125 8.125 -0.1875 C8.95789551 -0.21481201 9.79079102 -0.24212402 10.64892578 -0.27026367 C16.61338095 -0.33644052 20.63611506 0.96443242 25.25 4.9375 C28.93811537 9.2842074 29.44849709 12.87693992 29.30859375 18.46484375 C28.80159056 22.62997123 27.60255713 24.66338829 25 28 C19.40083615 31.98511917 15.3209375 32.53095408 8.5625 32.25 C4.3240625 32.12625 4.3240625 32.12625 0 32 C0 21.44 0 10.88 0 0 Z " fill="#090301" transform="translate(34,94)"/>
<path d="M0 0 C2.75137919 1.0473692 4.55846274 2.24209318 7 4 C7.9375 6.25 7.9375 6.25 8 8 C5 10 5 10 3.1875 9.6875 C2.465625 9.460625 1.74375 9.23375 1 9 C-0.99788438 8.65421232 -2.99759451 8.31856451 -5 8 C-4.79066419 9.97534566 -4.79066419 9.97534566 -4 12 C-2.03345392 12.72106689 -0.06449685 13.43705681 1.921875 14.1015625 C5.56473958 15.67648516 6.91820139 17.61707727 9 21 C9.625 24.5625 9.625 24.5625 9 28 C6.32191542 31.24189186 4.1204661 33.76735893 -0.171875 34.23828125 C-5.95507224 34.40476723 -9.55234602 34.11407993 -14 30 C-15.375 27.25 -15.375 27.25 -16 25 C-14.68 24.01 -13.36 23.02 -12 22 C-10.68 22.66 -9.36 23.32 -8 24 C-8 24.66 -8 25.32 -8 26 C-5.36 26 -2.72 26 0 26 C-0.12767931 24.06430781 -0.12767931 24.06430781 -1 22 C-3.20357806 20.56798303 -3.20357806 20.56798303 -5.875 19.5 C-9.65391728 17.86944677 -11.909382 16.61474595 -14 13 C-14.64540256 10.24628242 -14.62340287 7.75997451 -14 5 C-9.59141855 0.47540325 -6.24144221 -0.51159362 0 0 Z " fill="#03080C" transform="translate(214,93)"/>
<path d="M0 0 C0.66 0 1.32 0 2 0 C4.28373583 4.51812232 6.56225804 9.0388203 8.8359375 13.56201172 C9.61054162 15.1011475 10.38657862 16.639563 11.1640625 18.17724609 C12.27979833 20.38452451 13.3903961 22.59432154 14.5 24.8046875 C14.84998047 25.49432587 15.19996094 26.18396423 15.56054688 26.89450073 C18 31.77225659 18 31.77225659 18 34 C14.7 34 11.4 34 8 34 C7.34 32.02 6.68 30.04 6 28 C2.7 28 -0.6 28 -4 28 C-4.66 29.98 -5.32 31.96 -6 34 C-9.3 34 -12.6 34 -16 34 C-10.91273186 22.5334591 -5.7436169 11.15480582 0 0 Z M0 16 C-0.66 17.98 -1.32 19.96 -2 22 C-0.02 22 1.96 22 4 22 C3.34 20.02 2.68 18.04 2 16 C1.34 16 0.68 16 0 16 Z " fill="#000000" transform="translate(114,92)"/>
<path d="M0 0 C0.66 0 1.32 0 2 0 C4.28383277 4.37557455 6.56235098 8.75385826 8.8359375 13.13476562 C9.6105145 14.62543646 10.38655137 16.11534965 11.1640625 17.60449219 C12.2798703 19.74217499 13.39044004 21.88250656 14.5 24.0234375 C14.84998047 24.69120209 15.19996094 25.35896667 15.56054688 26.04696655 C18 30.77225659 18 30.77225659 18 33 C14.7 33 11.4 33 8 33 C7.34 31.02 6.68 29.04 6 27 C2.60079506 27.07015245 -0.68134964 27.22998636 -4 28 C-5.01187895 29.65948148 -6.0126546 31.32580562 -7 33 C-9.10913086 33.23803711 -9.10913086 33.23803711 -11.58984375 33.15234375 C-12.41218506 33.13034912 -13.23452637 33.10835449 -14.08178711 33.08569336 C-14.71479736 33.05741455 -15.34780762 33.02913574 -16 33 C-10.79930893 21.93099757 -5.53356791 10.90700042 0 0 Z " fill="#060200" transform="translate(79,93)"/>
<path d="M0 0 C3.3 0 6.6 0 10 0 C12.71970716 5.25184831 15.01095551 10.43067543 17 16 C19.0894988 12.8657518 20.56445886 9.73890554 22.125 6.3125 C22.66382813 5.13300781 23.20265625 3.95351562 23.7578125 2.73828125 C24.16773438 1.83464844 24.57765625 0.93101563 25 0 C28.3 0 31.6 0 35 0 C29.79362816 11.30457588 24.39650649 22.31591695 18 33 C14.50405246 29.87479129 12.61547276 26.71006241 10.546875 22.51953125 C10.24179016 21.90607346 9.93670532 21.29261566 9.62237549 20.66056824 C8.98343816 19.37232361 8.34830136 18.08218769 7.71679688 16.7902832 C6.74620745 14.80474156 5.76481929 12.82484243 4.78125 10.84570312 C0 1.179836 0 1.179836 0 0 Z " fill="#000000" transform="translate(125,94)"/>
<path d="M0 0 C2.5625 1.4375 2.5625 1.4375 4 4 C4.80197264 8.52481407 4.56940487 11.90674264 2.4375 16 C-0.78082193 18.64067441 -2.85931078 19 -7 19 C-9.94755732 17.65437601 -11.54277272 16.91445456 -13 14 C-13.48007335 9.48258847 -13.77748714 5.41975913 -11.5625 1.375 C-7.71323905 -0.69045709 -4.26820838 -0.74399963 0 0 Z " fill="#3DA4EF" transform="translate(182,101)"/>
<path d="M0 0 C8.07692308 0 8.07692308 0 12 3 C13.61588379 6.23176757 13.57451407 9.50615283 13 13 C11 16 11 16 8 18 C5.36 18 2.72 18 0 18 C0 12.06 0 6.12 0 0 Z " fill="#DF5322" transform="translate(42,101)"/>
<path d="M0 0 C0.66 0 1.32 0 2 0 C3.4606285 2.64738916 4 3.89448334 4 7 C2.02 7 0.04 7 -2 7 C-1.34 4.69 -0.68 2.38 0 0 Z " fill="#DE5322" transform="translate(79,107)"/>
</svg>
